<svg version="1.2" xmlns="http://www.w3.org/2000/svg" viewBox="0 0 700 700" width="700" height="700">
	<title>broto_logo</title>
	<style>
		.s0 { fill: #34c900 } 
	</style>
	<path id="Broto" class="s0" aria-label="Broto"  d="m201.5 198.6q0.4 2 0.4 4.4 0 2 0 3.9 0 21-12.2 41.5-12.3 20.1-26.9 37.9-5.5 7.1-11.4 13.8-5.6 6.3-10.3 12.3 4.4 9 8.3 18.5 4 9.5 7.9 19 2 3.9 2.8 8.7 0.8 4.7 0.8 9.4 0 12.7-7.5 22.9-7.6 9.9-22.6 9.9h-127.5l12.6-39.1h103.9q-5.9-13.8-11.9-27.6-5.9-14.2-11.8-28.1 5.5-6.7 11.1-13.4 5.5-6.7 11-13.8 5.1-6.7 10.7-13.4 5.5-6.7 11-13.5 7.9-9.4 13.1-18.5 5.5-9.1 7.9-16.6 1.1-3.2 1.5-5.5 0.8-2.8 0.8-5.2 0-3.1-2.7-5.1-2.4-2-7.9-2.4-6.4-0.4-13.5 2.8-6.7 3.2-13.8 9.5-3.1 2.3-5.9 5.1-2.8 2.8-5.5 5.9-11.5 12.3-21.4 30-9.8 17.4-16.5 38-4.4 13.4-7.5 28.4-2.8 14.6-3.6 29.6h-39.1q0.8-18.2 4-35.5 3.5-17.8 9-34.8 7.9-24.5 19.8-45.4 11.8-20.9 26-36.7 13.1-14.6 30.4-25.3 17.8-10.7 37.2-10.7 4.3 0 9.1 0.8 4.7 0.8 9.4 2.4 12.7 4 21 13 8.2 9.1 9.8 22.9zm107.8 114.2h-15q-2.3 1.5-7.1 6.3-4.7 4.7-9.9 10.6-1.5 1.6-3.1 3.6-1.6 2-3.2 3.5-5.1 6.8-8.7 12.7-3.5 5.5-3.5 9.1 0.4 1.5 1.2 2.7 1.2 0.8 3.5 0.8h44.3l-12.7 39.1q-2.7 0-7.1 0-3.9 0-8.7 0-4.7 0-9.1 0-3.9 0-6.7 0-12.2 0-22.9-5.5-10.2-5.5-16.2-16.6-1.2-2.4-1.9-4.7-0.8-2.4-1.2-5.2-0.8-2.3-1.2-4.7 0-2.4 0-4.8 0-12.6 5.5-24.4 5.5-12.3 13-22.5h-6.3q-1.2 0-2.3 0.4-0.8 0-2 0.3-4 1.2-7.5 4.8-3.6 3.1-5.2 6.7-0.3 0.4-0.7 1.2 0 0.4 0 0.8l-3.2 9.1-37.1-12.3 21.7-67.9 37.5 12.2-2 5.2h77.8zm158.4-8.7l-13.1 40.3h-18.9q-5.1 22.9-24.5 39.8-18.9 17-43.4 17-1.2 0-2.4 0-0.8 0-2-0.4-1.2 0-2.3 0-0.8-0.4-2-0.4-21.7-3.1-35.2-19.3-13-16.6-13-38.3 0-28.1 20.5-49.8 20.6-22.1 49.4-22.1 17.4 0 30.8 9.1 13.8 9.1 20.5 24.1zm-74.2 39.5q-10.3-2-17.8-9.9-7.1-7.9-8.3-19-6.3 4-10.6 10.7-4.4 6.3-5.6 13.4 0 0.4 0 1.2 0 0.4 0 0.8-0.3 0.4-0.3 1.2 0 0.4 0 0.8 0.3 7.1 4.3 12.6 4.3 5.5 12.6 5.5 7.9 0 14.6-5.1 7.2-5.1 11.1-12.2zm150.5-69.9l-12.7 39.1h-20.9l-16.2 49.3h47l-12.6 39.1h-44.3q-14.2 0-23.3-9.5-8.7-9.4-8.7-22.1 0-1.2 0-2.3 0.4-1.6 0.4-3.2 0.4-1.6 0.8-2.8 0.4-1.5 0.8-2.7l15-45.8h-22.1l13-39.1h21.8l15-46.2 37.1 12.2-11.1 34zm155.2 30.4l-13 40.3h-19q-5.1 22.9-24.5 39.8-18.9 17-43.4 17-1.2 0-2.4 0-0.8 0-1.9-0.4-1.2 0-2.4 0-0.8-0.4-2-0.4-21.7-3.1-35.1-19.3-13.1-16.6-13.1-38.3 0-28.1 20.6-49.8 20.5-22.1 49.3-22.1 17.4 0 30.8 9.1 13.9 9.1 20.6 24.1zm-74.3 39.5q-10.2-2-17.7-9.9-7.1-7.9-8.3-19-6.3 4-10.7 10.7-4.3 6.3-5.5 13.4 0 0.4 0 1.2 0 0.4 0 0.8-0.4 0.4-0.4 1.2 0 0.4 0 0.8 0.4 7.1 4.3 12.6 4.4 5.5 12.7 5.5 7.9 0 14.6-5.1 7.1-5.1 11-12.2z"/>
	<path id="Shape 1" class="s0" d="m22 419c0 0 15.7 38.9 8 58 0 0 429.7-47.1 526-35l54-24z"/>
</svg>